<?xml version="1.0" encoding="UTF-8" standalone="no"?>
<!-- Created with Inkscape (http://www.inkscape.org/) -->

<svg
   xmlns:dc="http://purl.org/dc/elements/1.1/"
   xmlns:cc="http://creativecommons.org/ns#"
   xmlns:rdf="http://www.w3.org/1999/02/22-rdf-syntax-ns#"
   xmlns:svg="http://www.w3.org/2000/svg"
   xmlns="http://www.w3.org/2000/svg"
   xmlns:sodipodi="http://sodipodi.sourceforge.net/DTD/sodipodi-0.dtd"
   xmlns:inkscape="http://www.inkscape.org/namespaces/inkscape"
   version="1.1"
   id="svg65298"
   xml:space="preserve"
   width="800"
   height="800"
   viewBox="0 0 800 800"
   sodipodi:docname="spruce-publicdomainvectors.org.svg"
   inkscape:version="0.92.4 (5da689c313, 2019-01-14)"><metadata
     id="metadata65304"><rdf:RDF><cc:Work
         rdf:about=""><dc:format>image/svg+xml</dc:format><dc:type
           rdf:resource="http://purl.org/dc/dcmitype/StillImage" /><dc:title></dc:title></cc:Work></rdf:RDF></metadata><defs
     id="defs65302"><clipPath
       clipPathUnits="userSpaceOnUse"
       id="clipPath65314"><path
         d="M 0,600 H 600 V 0 H 0 Z"
         id="path65312"
         inkscape:connector-curvature="0" /></clipPath></defs><sodipodi:namedview
     pagecolor="#ffffff"
     bordercolor="#666666"
     borderopacity="1"
     objecttolerance="10"
     gridtolerance="10"
     guidetolerance="10"
     inkscape:pageopacity="0"
     inkscape:pageshadow="2"
     inkscape:window-width="797"
     inkscape:window-height="480"
     id="namedview65300"
     showgrid="false"
     inkscape:zoom="0.295"
     inkscape:cx="400"
     inkscape:cy="400"
     inkscape:window-x="0"
     inkscape:window-y="0"
     inkscape:window-maximized="0"
     inkscape:current-layer="g65306" /><g
     id="g65306"
     inkscape:groupmode="layer"
     inkscape:label="spruce-publicdomainvectors.org"
     transform="matrix(1.3333333,0,0,-1.3333333,0,800)"><g
       id="g65308"><g
         id="g65310"
         clip-path="url(#clipPath65314)"><path
           d="M 1.54,0.08 H 601.213 V 599.755 H 1.54 Z"
           style="fill:#b3b3b3;fill-opacity:1;fill-rule:evenodd;stroke:none"
           id="path65316"
           inkscape:connector-curvature="0" /><path
           d="m 180.515,341.908 c 62.724,0 113.883,51.159 113.883,113.884 0,62.726 -51.159,113.885 -113.883,113.885 -62.725,0 -113.886,-51.159 -113.886,-113.885 0,-62.725 51.161,-113.884 113.886,-113.884"
           style="fill:#cccccc;fill-opacity:1;fill-rule:evenodd;stroke:none"
           id="path65318"
           inkscape:connector-curvature="0" /><path
           d="m 1.54,115.137 101.616,151.008 c 15.241,22.65 46.057,28.788 68.813,13.708 l 45.672,-30.265 c 45.35,-30.051 104.87,-22.469 141.237,17.995 l 45.11,50.192 c 18.299,20.363 49.806,22.084 70.216,3.837 l 65.408,-58.469 c 7.85,-7.016 17.154,-10.204 27.656,-9.474 10.503,0.73 19.275,5.178 26.076,13.212 l 7.869,9.298 V 0.08 H 1.54 Z"
           style="fill:#999999;fill-opacity:1;fill-rule:evenodd;stroke:none"
           id="path65320"
           inkscape:connector-curvature="0" /><path
           d="m 1.54,220.761 96.107,-43 c 35.327,-15.806 70.983,-17.634 107.741,-5.521 l 43.986,14.495 c 28.732,9.468 56.579,8.102 84.247,-4.137 l 65.319,-28.89 c 32.639,-14.437 65.094,-16.897 99.533,-7.551 l 102.74,27.88 V 0.08 H 1.54 Z"
           style="fill:#808080;fill-opacity:1;fill-rule:evenodd;stroke:none"
           id="path65322"
           inkscape:connector-curvature="0" /><path
           d="m 214.545,485.822 c 0.088,9.39 7.264,8.365 9.264,2.861 l 1.802,11.618 c 0.403,2.623 2.866,4.422 5.491,4.02 2.624,-0.401 4.422,-2.866 4.021,-5.489 l -6.766,-43.615 c 1.28,1.373 3.3,1.929 5.176,1.253 2.503,-0.905 3.793,-3.673 2.889,-6.177 l -3.093,-8.457 12.856,10.061 c 2.091,1.634 5.121,1.262 6.754,-0.831 1.634,-2.092 1.263,-5.122 -0.831,-6.755 l -25.892,-20.268 c -0.333,-0.295 -0.61,-0.46 -0.962,-0.667 l 0.131,-8.564 c 0.831,-1.145 1.136,-2.629 0.763,-4.05 l 18.282,11.671 c 2.237,1.426 5.219,0.764 6.645,-1.474 0.937,-1.469 0.976,-3.256 0.256,-4.717 l 12.618,3.862 c 2.542,0.769 5.234,-0.667 6.002,-3.208 0.768,-2.543 -0.667,-5.235 -3.209,-6.002 l -41.111,-12.584 0.28,-18.577 16.301,13.575 c 2.044,1.696 5.083,1.42 6.78,-0.624 1.696,-2.045 1.42,-5.083 -0.624,-6.78 l -3.842,-3.199 15.905,5.403 9.298,12.941 c 1.55,2.157 4.566,2.649 6.722,1.098 2.154,-1.551 2.648,-4.569 1.097,-6.724 l -1.426,-1.982 8.736,2.968 c 2.519,0.852 5.264,-0.502 6.114,-3.019 0.85,-2.519 -0.501,-5.262 -3.02,-6.114 l -61.837,-21.01 0.212,-14.027 0.879,0.059 c 0.349,0.532 0.808,1 1.368,1.374 l 14.982,9.906 c 2.217,1.468 5.213,0.86 6.682,-1.358 1.47,-2.22 0.861,-5.215 -1.357,-6.683 l -3.089,-2.044 c 19.872,1.28 39.739,2.56 59.61,3.847 2.659,0.163 4.953,-1.854 5.119,-4.51 0.165,-2.657 -1.852,-4.954 -4.51,-5.117 l -19.185,-1.237 8.84,-4.316 c 2.391,-1.165 3.386,-4.066 2.221,-6.456 -1.165,-2.393 -4.063,-3.387 -6.456,-2.224 l -24.042,11.738 -12.704,-0.821 16.469,-22.246 c 1.585,-2.133 1.136,-5.155 -1,-6.74 -2.136,-1.584 -5.157,-1.135 -6.742,1 l -20.171,27.252 -16.77,-1.082 0.451,-29.822 8.137,-1.285 13.115,6.968 c 2.355,1.251 5.283,0.352 6.534,-2.002 1.253,-2.353 0.354,-5.281 -2.001,-6.533 l -1.772,-0.942 c 7.815,-1.238 15.624,-2.466 23.438,-3.702 l 19.142,7.635 c 2.469,0.977 5.272,-0.232 6.248,-2.701 0.976,-2.47 -0.233,-5.272 -2.702,-6.248 l -4.074,-1.624 24.4,-3.852 c 2.625,-0.4 4.422,-2.866 4.019,-5.489 -0.399,-2.625 -2.865,-4.421 -5.488,-4.022 l -12.962,2.045 12.537,-13.144 c 1.83,-1.928 1.76,-4.988 -0.169,-6.82 -1.928,-1.83 -4.988,-1.76 -6.818,0.169 l -21.235,22.274 c -6.336,0.999 -12.652,2.001 -18.978,2.996 l 14.952,-27.99 c 1.251,-2.346 0.362,-5.262 -1.981,-6.514 -2.344,-1.252 -5.263,-0.363 -6.514,1.981 l -18.38,34.409 -13.284,2.098 5.766,-16.688 c 0.86,-2.51 -0.475,-5.254 -2.982,-6.113 -2.508,-0.86 -5.253,0.474 -6.113,2.981 l -7.438,21.514 -5.254,0.832 0.47,-31.288 35.829,-17.419 37.103,-3.887 c 2.645,-0.269 4.573,-2.642 4.302,-5.287 -0.27,-2.643 -2.643,-4.571 -5.286,-4.299 l -10.709,1.119 c 9.674,-4.702 19.35,-9.409 29.028,-14.11 l 14.986,2.402 c 2.624,0.417 5.095,-1.378 5.511,-4.003 0.415,-2.623 -1.378,-5.093 -4.003,-5.508 l -1.405,-0.227 11.722,-5.698 c 2.393,-1.153 3.399,-4.046 2.243,-6.436 -1.155,-2.392 -4.045,-3.399 -6.436,-2.243 l -25.404,12.353 -0.103,0.047 -1.102,0.533 28.226,-33.63 c 1.712,-2.044 1.441,-5.089 -0.603,-6.801 -2.043,-1.71 -5.089,-1.44 -6.799,0.605 l -42.112,50.177 -17.189,8.355 11.27,-10.333 c 1.956,-1.792 2.092,-4.837 0.299,-6.795 -1.793,-1.956 -4.837,-2.092 -6.795,-0.299 l -8.94,8.197 6.998,-34.713 c 0.517,-2.604 -1.174,-5.146 -3.778,-5.663 -2.606,-0.518 -5.148,1.174 -5.665,3.778 l -9.602,47.646 -14.096,12.917 -10.421,5.064 8.019,-16.556 c 1.154,-2.392 0.149,-5.281 -2.242,-6.438 -2.392,-1.154 -5.283,-0.15 -6.438,2.243 l -6.07,12.535 0.793,-52.946 8.481,-3.593 21.031,-0.548 c 2.658,-0.058 4.76,-2.266 4.703,-4.923 -0.044,-1.895 -1.175,-3.505 -2.789,-4.255 l 16.879,-7.15 59.1,-8.01 c 2.633,-0.351 4.485,-2.782 4.13,-5.415 -0.352,-2.633 -2.782,-4.486 -5.417,-4.133 l -24.091,3.263 c 18.278,-7.741 36.555,-15.478 54.836,-23.225 l 36.8,1.745 c 2.659,0.12 4.92,-1.929 5.04,-4.587 0.122,-2.658 -1.929,-4.92 -4.585,-5.04 l -16.774,-0.799 26.09,-11.051 c 2.446,-1.029 3.596,-3.861 2.568,-6.305 -1.031,-2.448 -3.863,-3.597 -6.308,-2.566 -17.489,7.411 -34.973,14.813 -52.458,22.229 l 12.332,-10.257 c 2.045,-1.694 2.321,-4.735 0.624,-6.779 -1.696,-2.045 -4.736,-2.32 -6.781,-0.624 l -36.9,30.678 -17.441,7.39 40.415,-50.863 c 1.654,-2.086 1.311,-5.124 -0.773,-6.777 -2.082,-1.652 -5.122,-1.31 -6.775,0.775 l -51.433,64.732 -15.073,6.388 c -0.199,0.068 -0.396,0.145 -0.58,0.242 l -6.814,2.888 24.568,-25.398 c 1.842,-1.919 1.785,-4.973 -0.135,-6.814 -1.917,-1.841 -4.971,-1.784 -6.813,0.135 l -40.342,41.703 c -3.527,1.497 -7.061,3.003 -10.588,4.488 l 15.628,-24.26 c 1.436,-2.239 0.783,-5.23 -1.455,-6.665 -2.237,-1.435 -5.229,-0.783 -6.664,1.454 l -11.883,18.447 1.212,-103.921 c 0.45,-9.63 -18.962,-10.214 -19.364,0 l 0.445,70.696 -10.772,-19.765 c -1.271,-2.334 -4.2,-3.195 -6.534,-1.922 -2.334,1.269 -3.193,4.199 -1.923,6.533 l 18.658,34.238 -9.341,-3.168 -28.105,-19.139 c -2.2,-1.498 -5.205,-0.936 -6.703,1.261 -1.383,2.025 -1.01,4.741 0.778,6.327 l -10.216,-3.466 -36.442,-40.448 c -1.779,-1.978 -4.839,-2.135 -6.815,-0.359 -1.977,1.78 -2.136,4.837 -0.358,6.813 l 24.902,27.641 -33.832,-11.489 -34.596,-27.628 c -2.083,-1.653 -5.122,-1.308 -6.775,0.774 -1.654,2.083 -1.31,5.122 0.773,6.774 l 13.718,10.957 c -19.57,-6.635 -39.147,-13.291 -58.724,-19.935 -2.518,-0.849 -5.263,0.502 -6.113,3.02 -0.851,2.519 0.502,5.264 3.021,6.115 l 13.622,4.624 c -1.082,0.777 -1.841,1.987 -1.991,3.406 -0.275,2.644 1.644,5.025 4.286,5.301 l 34.171,3.669 c 24.308,8.249 48.597,16.494 72.909,24.749 l -4.977,0.017 c -2.658,0.012 -4.803,2.175 -4.794,4.833 0.01,2.658 2.175,4.804 4.833,4.794 l 32.953,-0.141 14.082,4.781 c -1.971,0.591 -3.411,2.406 -3.425,4.571 -0.02,2.658 2.115,4.833 4.773,4.853 l 27.314,0.308 1.918,0.653 0.397,42.73 -17.978,-21.26 c -1.72,-2.029 -4.769,-2.285 -6.799,-0.563 -2.03,1.719 -2.285,4.768 -0.565,6.797 l 18.833,22.27 c -8.211,-2.987 -16.407,-5.969 -24.618,-8.956 l -31.962,-30.474 c -1.929,-1.83 -4.988,-1.758 -6.82,0.169 -1.831,1.929 -1.758,4.987 0.171,6.822 l 16.01,15.263 c -14.774,-5.368 -29.547,-10.748 -44.32,-16.122 L 80.257,144.43 c -1.675,-2.059 -4.716,-2.373 -6.774,-0.696 -2.059,1.677 -2.373,4.718 -0.696,6.776 l 23.544,28.994 -32.866,-11.956 c -2.504,-0.902 -5.273,0.388 -6.176,2.892 -0.904,2.503 0.385,5.27 2.89,6.175 l 42.744,15.546 -8.647,-0.897 c -2.643,-0.272 -5.015,1.657 -5.286,4.299 -0.27,2.643 1.658,5.016 4.301,5.288 l 46.963,4.89 14.47,5.264 -2.254,-0.244 c -2.642,-0.276 -5.025,1.645 -5.301,4.288 -0.274,2.642 1.644,5.025 4.287,5.301 l 41.096,4.418 19.62,7.137 0.333,35.738 -7.364,-10.025 c -1.571,-2.144 -4.596,-2.609 -6.742,-1.039 -2.145,1.57 -2.609,4.597 -1.039,6.742 l 6.225,8.472 -8.781,-2.954 -20.615,-39.066 c -1.238,-2.353 -4.162,-3.258 -6.515,-2.02 -2.353,1.237 -3.257,4.162 -2.02,6.516 l 15.889,30.111 -6.045,-2.031 -8.417,-14.806 c -1.311,-2.31 -4.259,-3.123 -6.568,-1.813 -2.31,1.309 -3.122,4.257 -1.814,6.568 l 1.537,2.701 -33.542,-26.135 c -2.093,-1.633 -5.123,-1.26 -6.756,0.831 -1.634,2.094 -1.262,5.124 0.831,6.757 l 16.919,13.179 -15.633,-5.258 -22.617,-22.042 c -1.904,-1.852 -4.963,-1.806 -6.813,0.097 -1.853,1.903 -1.808,4.963 0.096,6.814 l 8.254,8.045 -9.757,-3.28 c -2.518,-0.841 -5.253,0.521 -6.093,3.04 -0.842,2.518 0.521,5.252 3.039,6.093 13.29,4.47 26.573,8.931 39.859,13.4 l -2.808,0.073 c -2.657,0.057 -4.759,2.267 -4.701,4.925 0.057,2.657 2.266,4.761 4.924,4.701 l 29.13,-0.773 c 19.373,6.506 38.733,13.025 58.097,19.539 l 0.136,14.41 -16.958,-7.838 c -2.416,-1.112 -5.286,-0.056 -6.398,2.36 -1.112,2.414 -0.057,5.285 2.358,6.397 l 3.756,1.733 -11.349,-0.8 -32.073,-26.294 c -2.053,-1.687 -5.094,-1.392 -6.78,0.663 -1.687,2.051 -1.392,5.093 0.663,6.777 l 21.562,17.679 -36.147,-2.556 c -2.659,-0.183 -4.968,1.816 -5.151,4.475 -0.184,2.658 1.816,4.968 4.474,5.151 l 8.472,0.6 c -1.711,1.579 -2.068,4.223 -0.73,6.219 1.479,2.207 4.475,2.798 6.684,1.318 l 9.587,-6.435 47.209,3.338 c -1.531,1.397 -2.044,3.684 -1.106,5.65 1.145,2.406 4.03,3.425 6.437,2.28 l 5.659,-2.7 0.116,12.689 -6.123,1.228 -35.205,-16.745 c -2.407,-1.135 -5.283,-0.106 -6.418,2.301 -1.136,2.407 -0.107,5.282 2.3,6.417 l 23.54,11.197 c -8.592,1.726 -17.181,3.449 -25.759,5.166 l -18.963,-8.501 c -2.425,-1.083 -5.276,0.011 -6.358,2.436 -1.082,2.426 0.008,5.277 2.435,6.359 l 6.621,2.968 -9.864,1.982 c -2.604,0.517 -4.296,3.06 -3.778,5.663 0.516,2.605 3.058,4.296 5.663,3.78 l 16.121,-3.239 c -1.497,1.882 -1.392,4.627 0.334,6.38 1.866,1.893 4.919,1.923 6.814,0.059 l 10.042,-9.888 12.555,-2.517 -2.035,3.817 c -1.251,2.342 -0.362,5.262 1.982,6.514 2.343,1.252 5.263,0.362 6.513,-1.982 l 5.452,-10.23 0.256,-0.559 13.966,-2.807 0.272,28.92 -15.435,-3.426 c -2.596,-0.571 -5.172,1.068 -5.743,3.662 -0.569,2.597 1.068,5.171 3.664,5.742 l 5.035,1.118 -40.632,10.614 c -2.571,0.669 -4.122,3.302 -3.455,5.872 0.667,2.572 3.301,4.124 5.872,3.455 l 12.405,-3.241 -2.74,4.306 c -1.426,2.238 -0.763,5.219 1.473,6.643 2.237,1.427 5.22,0.764 6.645,-1.474 l 8.313,-13.05 21.205,-5.541 -2.107,3.022 c -1.518,2.185 -0.977,5.199 1.207,6.718 1.373,0.951 3.074,1.094 4.529,0.526 l 0.15,16.329 -32.374,14.411 c -2.425,1.082 -3.518,3.933 -2.435,6.359 1.082,2.427 3.934,3.519 6.36,2.436 l 19.89,-8.848 -2.493,3.668 c -1.489,2.198 -0.918,5.195 1.28,6.683 2.199,1.488 5.196,0.919 6.684,-1.281 l 3.267,-4.808 0.057,6.505 -13.849,17.195 c -1.667,2.072 -1.339,5.107 0.735,6.775 2.072,1.666 5.107,1.338 6.774,-0.735 l 6.486,-8.046 z"
           style="fill:#4d4d4d;fill-opacity:1;fill-rule:evenodd;stroke:none"
           id="path65324"
           inkscape:connector-curvature="0" /><path
           d="M 1.54,60.719 120.641,83.73 c 22.336,4.318 42.167,4.231 64.464,-0.273 L 292.11,61.84 c 14.176,-2.863 26.579,-3.798 41.023,-3.093 l 72.119,3.518 c 20.439,0.996 38.06,-1.251 57.594,-7.342 l 40.13,-12.513 c 16.822,-5.246 31.873,-7.537 49.494,-7.537 h 48.743 V 0.08 H 1.54 Z"
           style="fill:#4d4d4d;fill-opacity:1;fill-rule:evenodd;stroke:none"
           id="path65326"
           inkscape:connector-curvature="0" /></g></g></g></svg>